<?xml version="1.0" encoding="utf-8"?>
<!-- Generator: Adobe Illustrator 27.5.0, SVG Export Plug-In . SVG Version: 6.00 Build 0)  -->
<svg version="1.1" id="Layer_1" xmlns="http://www.w3.org/2000/svg" xmlns:xlink="http://www.w3.org/1999/xlink" x="0px" y="0px"
	 viewBox="0 0 256 256" style="enable-background:new 0 0 256 256;" xml:space="preserve">
<style type="text/css">
	.st0{fill:#80C7ED;}
	.st1{fill:#242D3C;}
</style>
<g>
	<rect class="st0" width="256" height="256"/>
	<g>
		<g>
			<g>
				<polygon class="st1" points="211.5,201.72 174.54,201.72 174.54,189.72 199.5,189.72 199.5,64.41 56.5,64.41 56.5,189.72 
					82.35,189.72 82.35,201.72 44.5,201.72 44.5,52.41 211.5,52.41 				"/>
			</g>
		</g>
		<g>
			<rect x="98.46" y="190.85" class="st1" width="12.75" height="12.74"/>
			<rect x="121.63" y="190.85" class="st1" width="12.74" height="12.74"/>
			<rect x="144.8" y="190.85" class="st1" width="12.74" height="12.74"/>
		</g>
	</g>
	<g>
		<g>
			<polygon class="st1" points="94.93,153.76 69.17,127.98 94.94,102.24 103.42,110.72 86.14,127.99 103.41,145.27 			"/>
		</g>
		<g>
			<polygon class="st1" points="161.07,153.76 152.58,145.27 169.86,127.99 152.58,110.72 161.06,102.24 186.83,127.98 			"/>
		</g>
		<g>
			
				<rect x="102.64" y="122" transform="matrix(0.2308 -0.973 0.973 0.2308 -25.6317 223.5775)" class="st1" width="51.9" height="12"/>
		</g>
	</g>
</g>
</svg>
